<?xml version="1.0" encoding="iso-8859-1"?>
<!-- Generator: Adobe Illustrator 18.0.0, SVG Export Plug-In . SVG Version: 6.00 Build 0)  -->
<!DOCTYPE svg PUBLIC "-//W3C//DTD SVG 1.1//EN" "http://www.w3.org/Graphics/SVG/1.1/DTD/svg11.dtd">
<svg version="1.1" id="_x35_" xmlns="http://www.w3.org/2000/svg" xmlns:xlink="http://www.w3.org/1999/xlink" x="0px" y="0px"
	 viewBox="0 0 512 512" style="enable-background:new 0 0 512 512;" xml:space="preserve">
<g>
	<g>
		<g>
			<path style="fill:#3B6469;" d="M483.547,55.859l-20.953-9.132c1.794-4.158,1.875-8.805,0.245-13.043
				c-1.631-4.24-4.892-7.583-9.05-9.377c-4.158-1.793-8.724-1.875-12.963-0.244c-4.24,1.63-7.582,4.892-9.458,9.05
				c-1.793,4.158-1.875,8.806-0.244,12.963c1.712,4.24,4.892,7.583,9.05,9.458l10.517,4.566l-15.653,35.627l-3.098,7.094
				l-20.953-9.132l3.914-8.967l6.277-14.349c-4.973-4.24-8.886-9.621-11.332-15.899c-3.914-9.946-3.669-20.789,0.57-30.573
				c4.321-9.702,12.148-17.284,22.013-21.116c9.62-3.832,20.138-3.668,29.677,0.245c0.326,0.082,0.571,0.163,0.897,0.325
				c9.62,4.158,16.958,11.741,20.871,21.442c0.082,0.163,0.163,0.408,0.245,0.571C488.031,35.314,487.867,46.157,483.547,55.859z"/>
		</g>
		<path style="fill:#B8CDD1;" d="M450.935,131.355v108.189c0,26.578-21.768,48.346-48.346,48.346c-1.06,0-2.12,0-3.098-0.163
			c-13.534-0.815-25.6-7.337-33.835-17.121c-7.093-8.479-11.332-19.241-11.332-31.062V131.355c0-26.497,21.686-48.265,48.265-48.265
			c4.24,0,8.397,0.57,12.311,1.631c7.582,1.957,14.512,5.87,20.137,11.005c0.571,0.49,1.141,0.979,1.712,1.55
			C445.473,106.08,450.935,118.146,450.935,131.355z"/>
		<rect x="80.224" y="12.077" style="fill:#D15F6F;" width="146.589" height="169.906"/>
		<rect x="42.966" y="62.137" style="fill:#FFFFFF;" width="265.294" height="169.906"/>
		<polygon style="fill:#3B6469;" points="512,197.066 488.031,390.208 472.377,447.604 39.623,447.604 32.041,419.884 
			23.969,390.208 0,197.066 		"/>
		<polygon style="fill:#DC8585;" points="488.031,390.208 472.377,447.604 39.623,447.604 32.041,419.884 23.969,390.208 		"/>
		<rect x="89.657" y="104.029" style="fill:#B8CDD1;" width="77.422" height="58.174"/>
		<rect x="194.867" y="104.029" style="fill:#B8CDD1;" width="77.422" height="58.174"/>
		<path style="fill:#3B6469;" d="M404.571,141.26L404.571,141.26c-7.679,0-13.962-6.283-13.962-13.962v0
			c0-7.679,6.283-13.962,13.962-13.962l0,0c7.679,0,13.962,6.283,13.962,13.962v0C418.532,134.977,412.25,141.26,404.571,141.26z"/>
		<g>
			<circle style="fill:#D7E6BC;" cx="141.98" cy="303.916" r="33.638"/>
			<circle style="fill:#D7E6BC;" cx="256" cy="303.916" r="33.638"/>
			<circle style="fill:#D7E6BC;" cx="370.021" cy="303.916" r="33.638"/>
		</g>
	</g>
	<path style="fill:none;" d="M354.297,197.099v-65.713c0-2.156,0.193-4.263,0.47-6.345l-46.513,46.513v25.545H354.297z"/>
	<path style="fill:none;" d="M414.906,84.746l6.287-14.381c-2.124-1.795-4.001-3.849-5.702-6.049l-19.24,19.24
		c2.083-0.277,4.191-0.47,6.346-0.47C406.855,83.087,410.967,83.7,414.906,84.746z"/>
	<path style="fill:none;" d="M440.793,24.062c-4.233,1.658-7.566,4.865-9.387,9.029c-1.821,4.164-1.911,8.788-0.252,13.021
		c0.233,0.595,0.564,1.127,0.857,1.684l22.88-22.88c-0.365-0.191-0.695-0.434-1.077-0.601
		C449.651,22.495,445.027,22.406,440.793,24.062z"/>
	<g>
		<path style="opacity:0.09;fill:#040000;" d="M462.842,33.701c1.658,4.233,1.568,8.856-0.253,13.021l20.968,9.167
			c4.27-9.765,4.482-20.608,0.594-30.532c-2.67-6.819-7.151-12.536-12.802-16.899l-16.457,16.457
			C458.51,26.819,461.339,29.858,462.842,33.701z"/>
		<path style="opacity:0.09;fill:#040000;" d="M450.899,131.387c0-14.08-6.143-26.763-15.838-35.613l15.604-35.691l-10.484-4.584
			c-3.578-1.566-6.381-4.293-8.17-7.703l-16.52,16.521c1.7,2.2,3.578,4.254,5.702,6.049l-6.287,14.381
			c-3.94-1.047-8.051-1.66-12.308-1.66c-2.156,0-4.263,0.193-6.346,0.47l-41.485,41.485c-0.277,2.082-0.47,4.19-0.47,6.345v65.713
			h-46.044v-25.545L38.007,441.801l1.584,5.83h432.818l15.591-57.385l23.969-193.147h-61.07V131.387z"/>
	</g>
</g>
</svg>
