<?xml version="1.0" encoding="iso-8859-1"?>
<!-- Generator: Adobe Illustrator 18.0.0, SVG Export Plug-In . SVG Version: 6.00 Build 0)  -->
<!DOCTYPE svg PUBLIC "-//W3C//DTD SVG 1.1//EN" "http://www.w3.org/Graphics/SVG/1.1/DTD/svg11.dtd">
<svg version="1.1" id="_x34_" xmlns="http://www.w3.org/2000/svg" xmlns:xlink="http://www.w3.org/1999/xlink" x="0px" y="0px"
	 viewBox="0 0 512 512" style="enable-background:new 0 0 512 512;" xml:space="preserve">
<g>
	<g>
		<g>
			<path style="fill:#F9D791;" d="M188.593,339.747c0,27.828-22.554,50.383-50.38,50.383c-27.822,0-50.383-22.555-50.383-50.383
				c0-27.823,22.561-50.383,50.383-50.383C166.039,289.364,188.593,311.924,188.593,339.747z"/>
			<g>
				<path style="fill:#F5BF41;" d="M424.176,339.747c0,27.828-22.555,50.383-50.383,50.383s-50.383-22.555-50.383-50.383
					c0-27.823,22.555-50.383,50.383-50.383S424.176,311.924,424.176,339.747z"/>
			</g>
		</g>
	</g>
	<g>
		<path style="fill:#F9D791;" d="M198.808,352.003c0,31.585,25.602,57.192,57.193,57.192V294.816
			C224.41,294.816,198.808,320.417,198.808,352.003z"/>
		<path style="fill:#F9D791;" d="M256.002,294.816v114.379c31.592,0,57.193-25.607,57.193-57.192
			C313.195,320.417,287.594,294.816,256.002,294.816z"/>
	</g>
	<polygon style="fill:#EAE9E9;" points="256.002,184.969 256.002,184.969 256.002,184.969 	"/>
	<g>
		<g>
			<path style="fill:#EAEAEA;" d="M256.002,184.969L256.002,184.969l-9.331-9.332l-9.332-9.338C104.664,171.764,0,234.346,0,283.456
				c0,4.198,0.774,8.327,2.259,12.372c8.371,22.9,39.656,43.176,85.213,57.666c45.027,14.337,103.989,23.015,168.529,23.015l0,0
				V184.969L256.002,184.969z"/>
			<path style="fill:#D3D3D3;" d="M274.665,166.298l-9.332,9.338l-9.332,9.332v191.541c64.553,0,123.5-8.679,168.532-23.015
				c45.557-14.49,76.842-34.766,85.214-57.666c1.485-4.045,2.253-8.173,2.253-12.372C512,234.346,407.343,171.764,274.665,166.298z"
				/>
		</g>
		<path style="fill:#C7C6C6;" d="M509.747,295.828L265.333,175.637l-9.332,9.332l168.532,168.526
			C470.091,339.004,501.376,318.728,509.747,295.828z"/>
		<path style="fill:#FAFAFB;" d="M237.338,166.298C104.664,171.764,0,234.346,0,283.456c0,4.198,0.774,8.327,2.259,12.372
			L246.67,175.637L237.338,166.298z"/>
		<path style="fill:#E3E2E2;" d="M87.472,353.494c45.027,14.337,103.989,23.015,168.529,23.015V184.969L87.472,353.494z"/>
	</g>
	<g>
		<path style="fill:#DDDDDE;" d="M99.403,165.307v82.736c0,25.831,70.118,46.773,156.599,46.773v-89.937
			C169.521,204.879,99.403,187.163,99.403,165.307z"/>
		<path style="fill:#D6D7D7;" d="M256.002,204.879v89.937c86.481,0,156.602-20.942,156.602-46.773v-82.736
			C412.604,187.163,342.482,204.879,256.002,204.879z"/>
	</g>
	<g>
		<path style="fill:#FAFAFB;" d="M98.724,175.118c0,24.635,70.413,44.61,157.278,44.61v-89.233
			C169.137,130.495,98.724,150.464,98.724,175.118z"/>
		<path style="fill:#EAE9E9;" d="M256.002,130.495v89.233c86.865,0,157.28-19.976,157.28-44.61
			C413.282,150.464,342.866,130.495,256.002,130.495z"/>
	</g>
	<g>
		<path style="fill:#DDDDDE;" d="M256.002,47.49v148.199c69.763,0,126.316-16.475,126.316-33.96
			C382.318,98.635,325.765,47.49,256.002,47.49z"/>
		<path style="fill:#EDEDEC;" d="M129.683,161.729c0,15.425,56.556,33.96,126.319,33.96V47.49
			C186.239,47.49,129.683,98.635,129.683,161.729z"/>
		<g>
			<path style="fill:#EDEDEC;" d="M249.934,20.551v37.436c0,3.354,2.714,6.074,6.067,6.074V14.478
				C252.648,14.478,249.934,17.197,249.934,20.551z"/>
			<path style="fill:#D6D7D7;" d="M256.002,14.478V64.06c3.354,0,6.068-2.72,6.068-6.074V20.551
				C262.069,17.197,259.355,14.478,256.002,14.478z"/>
		</g>
	</g>
	<g>
		<path style="fill:#9EB6B9;" d="M387.86,240.344c0,14.291-8.538,25.87-19.06,25.87c-10.535,0-19.06-11.578-19.06-25.87
			c0-14.292,8.525-25.87,19.06-25.87C379.322,214.474,387.86,226.052,387.86,240.344z"/>
		<path style="fill:#C2CFD0;" d="M162.276,240.344c0,14.291-8.541,25.87-19.069,25.87c-10.529,0-19.061-11.578-19.061-25.87
			c0-14.292,8.532-25.87,19.061-25.87C153.735,214.474,162.276,226.052,162.276,240.344z"/>
	</g>
	<circle style="fill:#FFFFFF;" cx="188.21" cy="104.305" r="17.844"/>
	<g>
		<path style="fill:#C2CFD0;" d="M228.083,257.362c0,15.425,12.506,27.918,27.918,27.918v-55.836
			C240.589,229.444,228.083,241.943,228.083,257.362z"/>
		<path style="fill:#9EB6B9;" d="M256.002,229.444v55.836c15.425,0,27.918-12.493,27.918-27.918
			C283.92,241.943,271.426,229.444,256.002,229.444z"/>
	</g>
	<g>
		<path style="fill:#EDEDEC;" d="M238.977,17.025c0,9.402,7.629,17.018,17.025,17.018V0C246.606,0,238.977,7.623,238.977,17.025z"/>
		<path style="fill:#D6D7D7;" d="M256.002,0v34.043c9.396,0,17.025-7.616,17.025-17.018C273.027,7.623,265.397,0,256.002,0z"/>
	</g>
	<path style="fill:#FFFFFF;" d="M256.45,13.978c0,3.987-3.239,7.213-7.22,7.213c-3.994,0-7.22-3.226-7.22-7.213
		c0-3.987,3.226-7.226,7.22-7.226C253.211,6.752,256.45,9.991,256.45,13.978z"/>
</g>
</svg>
