<?xml version="1.0" encoding="iso-8859-1"?>
<!-- Generator: Adobe Illustrator 18.0.0, SVG Export Plug-In . SVG Version: 6.00 Build 0)  -->
<!DOCTYPE svg PUBLIC "-//W3C//DTD SVG 1.1//EN" "http://www.w3.org/Graphics/SVG/1.1/DTD/svg11.dtd">
<svg version="1.1" id="_x34_" xmlns="http://www.w3.org/2000/svg" xmlns:xlink="http://www.w3.org/1999/xlink" x="0px" y="0px"
	 viewBox="0 0 512 512" style="enable-background:new 0 0 512 512;" xml:space="preserve">
<g>
	<path style="fill:#7DB78C;" d="M512,219.849c0,4.213-0.744,8.36-2.231,12.379c-8.353,22.903-39.676,43.206-85.227,57.688
		c-45.001,14.362-103.989,23.024-168.544,23.024s-123.543-8.662-168.541-23.024c-28.285-8.976-51.064-20.237-66.289-32.93
		c-0.124-0.06-0.188-0.181-0.311-0.241l-9.901-9.907c-0.124-0.061-0.188-0.188-0.248-0.308c-3.838-4.582-6.685-9.411-8.48-14.301
		C0.741,228.209,0,224.062,0,219.849c0-31.999,44.439-69.692,112.152-93.647c4.829-3.095,10.895-6.002,17.952-8.662
		C134.87,51.807,189.4,0,255.998,0c29.956,0,57.501,10.523,79.104,28.04c6.993,5.633,13.37,12.004,18.997,18.998
		c15.788,19.56,25.937,43.889,27.792,70.503c7.06,2.66,13.123,5.567,17.952,8.662C467.555,150.157,512,187.85,512,219.849z"/>
	<g>
		<polygon style="fill:#EAE9E9;" points="255.998,121.385 256.005,121.385 255.998,121.385 		"/>
		<g>
			<g>
				<path style="fill:#EAEAEA;" d="M255.998,121.379V312.94c-64.555,0-123.543-8.662-168.541-23.024
					c-28.285-8.976-51.064-20.237-66.289-32.93c-0.124-0.06-0.188-0.181-0.311-0.241c-3.775-3.222-7.117-6.504-9.901-9.907
					c-0.124-0.061-0.188-0.188-0.248-0.308c-3.838-4.582-6.685-9.411-8.48-14.301C0.741,228.209,0,224.062,0,219.849
					c0-31.999,44.439-69.692,112.152-93.647c5.757-2.043,11.638-3.959,17.704-5.694c32.124-9.713,68.581-16.217,107.453-17.825
					l9.344,9.345L255.998,121.379z"/>
				<path style="fill:#D3D3D3;" d="M512,219.849c0,4.213-0.744,8.36-2.231,12.379c-8.353,22.903-39.676,43.206-85.227,57.688
					c-45.001,14.362-103.989,23.024-168.544,23.024V121.379l9.345-9.351l9.344-9.345c38.872,1.608,75.332,8.112,107.453,17.825
					c6.069,1.735,11.944,3.651,17.704,5.694C467.555,150.157,512,187.85,512,219.849z"/>
			</g>
			<path style="fill:#C7C6C6;" d="M509.769,232.228c-8.353,22.903-39.676,43.206-85.227,57.688l-69.264-69.257l-99.28-99.28
				l9.345-9.351l71.427,35.161l10.892,5.319h0.066l36.019,17.765l28.844,14.174L509.769,232.228z"/>
			<path style="fill:#FAFAFB;" d="M246.653,112.028l-71.366,35.094c-0.061,0-0.061,0.067-0.061,0.067l-9.84,4.824l-37.14,18.26
				l-28.841,14.174L2.228,232.228C0.741,228.209,0,224.062,0,219.849c0-31.999,44.439-69.692,112.152-93.647
				c5.757-2.043,11.638-3.959,17.704-5.694c32.124-9.713,68.581-16.217,107.453-17.825L246.653,112.028z"/>
			<path style="fill:#E3E2E2;" d="M255.998,121.379V312.94c-64.555,0-123.543-8.662-168.541-23.024l69.261-69.257L255.998,121.379z"
				/>
		</g>
		<g>
			<path style="fill:#DDDDDE;" d="M99.383,144.3v40.16c0,25.834,70.125,46.784,156.621,46.784v-89.948
				C169.508,141.295,99.383,166.156,99.383,144.3z"/>
			<path style="fill:#D6D7D7;" d="M256.005,141.295v89.948c86.49,0,156.606-20.95,156.606-46.784V144.3
				C412.61,166.156,342.495,141.295,256.005,141.295z"/>
		</g>
		<g>
			<path style="fill:#FAFAFB;" d="M255.998,99.649v89.252c-22.715,0-44.258-1.36-63.69-3.832
				c-25.75-3.222-47.845-8.36-64.062-14.797c-15.907-6.25-26.242-13.74-28.841-21.845c-0.435-1.366-0.683-2.727-0.683-4.153
				c0-6.438,4.767-12.56,13.431-18.073c4.829-3.095,10.895-6.002,17.952-8.662C158.822,106.649,204.5,99.649,255.998,99.649z"/>
			<path style="fill:#EAE9E9;" d="M413.276,144.275c0,1.426-0.248,2.787-0.683,4.153c-2.599,8.105-12.935,15.594-28.844,21.845
				c-16.217,6.437-38.309,11.575-64.059,14.797c-19.433,2.472-40.975,3.832-63.69,3.832V99.649c51.499,0,97.177,7,125.894,17.891
				c7.06,2.66,13.123,5.567,17.952,8.662C408.506,131.715,413.276,137.838,413.276,144.275z"/>
		</g>
		<g>
			<path style="fill:#9EB6B9;" d="M382.328,127.073c0,8.105-9.841,16.03-26.433,22.527c-2.532,1.052-5.259,1.982-8.166,2.907h-0.066
				c-13.8,4.461-31.008,8.051-50.381,10.155c-12.935,1.421-26.801,2.224-41.284,2.224V0c29.956,0,57.501,10.523,79.104,28.04
				c6.993,5.633,13.37,12.004,18.997,18.998c15.788,19.56,25.937,43.889,27.792,70.503c0.188,0.992,0.248,1.977,0.248,2.968
				C382.267,122.678,382.328,124.903,382.328,127.073z"/>
			<path style="fill:#C2CFD0;" d="M255.998,0v164.887c-14.422,0-28.222-0.864-41.096-2.411
				c-18.944-2.291-35.904-6.002-49.516-10.463c-2.603-0.865-5.141-1.729-7.493-2.66c-17.641-6.746-28.225-14.851-28.225-22.28
				c0-2.17,0.064-4.395,0.188-6.565c0-0.991,0.061-1.976,0.248-2.968C134.87,51.807,189.4,0,255.998,0z"/>
		</g>
		<g>
			<path style="fill:#9EB6B9;" d="M387.876,194.239c0,4.637-2.78,8.396-6.195,8.396c-3.409,0-6.178-3.759-6.178-8.396
				c0-4.636,2.769-8.395,6.178-8.395C385.096,185.843,387.876,189.603,387.876,194.239z"/>
			<path style="fill:#C2CFD0;" d="M138.917,192.601c0,5.549-3.309,10.034-7.393,10.034c-4.086,0-7.395-4.485-7.395-10.034
				c0-5.543,3.31-10.034,7.395-10.034C135.608,182.567,138.917,187.058,138.917,192.601z"/>
		</g>
		<path style="fill:#FFFFFF;" d="M206.047,73.483c0,9.858-7.997,17.849-17.849,17.849c-9.852,0-17.843-7.991-17.843-17.849
			c0-9.859,7.991-17.849,17.843-17.849C198.05,55.633,206.047,63.624,206.047,73.483z"/>
		<g>
			<path style="fill:#C2CFD0;" d="M245.554,210.71c0,6.074,4.92,10.989,10.989,10.989v-21.978
				C250.474,199.721,245.554,204.641,245.554,210.71z"/>
			<path style="fill:#9EB6B9;" d="M256.542,199.721v21.978c6.075,0,10.995-4.915,10.995-10.989
				C267.538,204.641,262.617,199.721,256.542,199.721z"/>
		</g>
	</g>
</g>
</svg>
